<svg width="221" height="87" viewBox="0 0 221 87" fill="none" xmlns="http://www.w3.org/2000/svg">
<g clip-path="url(#clip0_2501_923)">
<path d="M123.949 42.0781C123.205 42.0781 122.611 42.2355 122.161 42.5502C121.71 42.865 121.488 43.4014 121.488 44.1597V63.6947H126.216V42.5216C126.102 42.4858 125.823 42.4 125.394 42.2713C124.965 42.1425 124.485 42.0781 123.956 42.0781H123.949ZM162.282 49.1167C162.046 49.0166 161.774 48.9308 161.46 48.8521C161.145 48.7734 160.794 48.7376 160.401 48.7376C159.972 48.7376 159.607 48.7877 159.314 48.8879C159.02 48.988 158.77 49.1239 158.563 49.3099C158.355 49.4959 158.183 49.7176 158.033 49.968C157.883 50.2255 157.754 50.4973 157.64 50.7906C157.425 51.3199 157.168 51.9565 156.86 52.7148C156.56 53.4658 156.252 54.2169 155.952 54.9751C155.651 55.7262 155.372 56.4129 155.115 57.0281C154.857 57.6432 154.671 58.0796 154.557 58.3299C154.442 58.0796 154.242 57.6289 153.97 56.9923C153.698 56.3557 153.391 55.626 153.048 54.7963C152.704 53.9665 152.347 53.0581 151.975 52.0853C151.603 51.1053 151.252 50.1396 150.916 49.1811C150.859 49.1454 150.63 49.0595 150.244 48.9308C149.85 48.802 149.342 48.7376 148.72 48.7376C147.94 48.7376 147.347 48.9308 146.96 49.3099C146.567 49.689 146.374 50.1539 146.374 50.7047C146.374 51.0982 146.467 51.5345 146.653 52.0281C146.839 52.5145 147.01 52.958 147.168 53.3442C147.246 53.5374 147.44 53.988 147.754 54.6818C148.069 55.3757 148.455 56.2198 148.927 57.2069C149.399 58.194 149.922 59.2527 150.501 60.39C151.08 61.5273 151.667 62.6289 152.275 63.7019H156.653C156.867 63.2941 157.168 62.7076 157.561 61.9565C157.955 61.2055 158.377 60.3614 158.827 59.4172C159.278 58.4801 159.736 57.5073 160.208 56.4987C160.68 55.4901 161.116 54.5316 161.517 53.6089C161.917 52.6933 162.268 51.8707 162.561 51.1625C162.854 50.4472 163.04 49.9179 163.119 49.5674C163.083 49.5459 162.99 49.4959 162.854 49.4029C162.718 49.317 162.533 49.224 162.296 49.1239L162.282 49.1167ZM143.048 50.5831C142.296 49.8821 141.417 49.3242 140.408 48.9236C139.399 48.523 138.327 48.3228 137.196 48.3228C136.066 48.3228 134.965 48.523 133.963 48.9236C132.962 49.3242 132.089 49.875 131.338 50.5831C130.587 51.2841 129.993 52.121 129.564 53.0796C129.135 54.0381 128.92 55.0824 128.92 56.2198C128.92 57.3571 129.135 58.4014 129.564 59.36C129.993 60.3185 130.587 61.1482 131.338 61.8492C132.089 62.5502 132.969 63.1082 133.963 63.5087C134.965 63.9093 136.038 64.1096 137.196 64.1096C138.355 64.1096 139.399 63.9093 140.408 63.5087C141.417 63.1082 142.296 62.5574 143.048 61.8492C143.799 61.1411 144.392 60.3113 144.821 59.36C145.251 58.4014 145.465 57.3571 145.465 56.2198C145.465 55.0824 145.251 54.0381 144.821 53.0796C144.392 52.121 143.799 51.2913 143.048 50.5831ZM140.379 57.679C140.215 58.1296 139.972 58.5159 139.657 58.8378C139.342 59.1597 138.977 59.4172 138.555 59.6032C138.133 59.7891 137.683 59.8821 137.189 59.8821C136.696 59.8821 136.223 59.7891 135.809 59.6032C135.401 59.4172 135.036 59.1668 134.721 58.8378C134.407 58.5159 134.171 58.1296 133.999 57.679C133.834 57.2283 133.749 56.7419 133.749 56.2126C133.749 55.6833 133.834 55.1969 133.999 54.7462C134.163 54.2956 134.407 53.9093 134.721 53.5874C135.036 53.2655 135.394 53.008 135.809 52.822C136.216 52.6361 136.681 52.5431 137.189 52.5431C137.697 52.5431 138.133 52.6361 138.555 52.822C138.977 53.008 139.342 53.2584 139.657 53.5874C139.972 53.9093 140.208 54.2956 140.379 54.7462C140.544 55.1969 140.63 55.6833 140.63 56.2126C140.63 56.7419 140.544 57.2283 140.379 57.679ZM174.049 57.8578C175.172 57.6432 176.066 57.3356 176.724 56.9351C177.382 56.5345 177.833 56.0481 178.09 55.4687C178.348 54.8893 178.47 54.2455 178.47 53.5159C178.47 52.8507 178.319 52.2069 178.012 51.5774C177.711 50.9551 177.268 50.3972 176.688 49.9036C176.109 49.4172 175.401 49.0309 174.557 48.7448C173.713 48.4587 172.769 48.3228 171.71 48.3228C170.573 48.3228 169.521 48.5159 168.541 48.895C167.561 49.2741 166.71 49.8106 165.987 50.4901C165.265 51.1768 164.693 52.0066 164.285 52.9866C163.877 53.9665 163.67 55.0395 163.67 56.2126C163.67 57.4644 163.877 58.5803 164.285 59.5531C164.693 60.5331 165.258 61.3557 165.973 62.0281C166.688 62.7004 167.525 63.2155 168.484 63.566C169.442 63.9165 170.472 64.0953 171.567 64.0953C172.447 64.0953 173.255 64.0309 173.992 63.9022C174.729 63.7734 175.365 63.6232 175.916 63.4444C176.467 63.2655 176.917 63.0939 177.282 62.915C177.647 62.7362 177.904 62.6003 178.062 62.5073L176.417 59.224C176.374 59.267 176.252 59.3313 176.038 59.4315C175.823 59.5316 175.551 59.6246 175.215 59.7248C174.879 59.8249 174.492 59.9179 174.042 60.0037C173.591 60.0896 173.112 60.1325 172.604 60.1325C171.939 60.1325 171.374 60.0753 170.902 59.9537C170.43 59.8392 170.043 59.6818 169.743 59.4816C169.442 59.2884 169.206 59.0738 169.042 58.8521C168.877 58.6303 168.77 58.3943 168.734 58.1654H169.764C171.51 58.1654 172.94 58.0581 174.063 57.8435L174.049 57.8578ZM168.491 55.1253C168.512 54.7319 168.591 54.3457 168.727 53.9665C168.863 53.5874 169.063 53.2512 169.328 52.958C169.593 52.6647 169.922 52.4286 170.315 52.2426C170.708 52.0567 171.166 51.9637 171.696 51.9637C172.44 51.9637 172.997 52.1139 173.369 52.4215C173.741 52.7219 173.927 53.0796 173.927 53.4944C173.927 53.6876 173.884 53.8879 173.813 54.081C173.734 54.2741 173.52 54.4529 173.169 54.6103C172.819 54.7677 172.275 54.8964 171.553 54.9894C170.83 55.0824 169.807 55.1325 168.498 55.1325L168.491 55.1253Z" fill="#B71234"/>
<path d="M118.241 32.686C117.747 31.3842 117.211 30.0179 116.631 28.573C116.052 27.1281 115.494 25.7475 114.957 24.4314C114.414 23.1152 113.92 21.9278 113.462 20.8691C113.005 19.8176 112.64 19.0451 112.361 18.5587C112.325 18.5372 112.232 18.48 112.082 18.3799C111.932 18.2797 111.739 18.1796 111.495 18.0723C111.252 17.965 110.98 17.872 110.673 17.7933C110.365 17.7146 110.05 17.6789 109.736 17.6789C108.899 17.6789 108.219 17.8434 107.711 18.1796C107.196 18.5086 106.767 19.0952 106.409 19.9392C105.737 21.5201 105.058 23.1581 104.357 24.8606C103.656 26.563 102.99 28.2225 102.347 29.8534C101.703 31.4843 101.102 33.0294 100.544 34.4814C99.986 35.9335 99.5139 37.2068 99.1205 38.3012H103.949C104.206 37.6002 104.457 36.9063 104.686 36.2196C104.922 35.533 105.186 34.7819 105.48 33.9664H113.605C113.956 34.9035 114.256 35.7189 114.5 36.4128C114.743 37.1066 114.965 37.7361 115.172 38.3012H120.308C120.158 37.872 119.9 37.1567 119.528 36.1481C119.156 35.1395 118.72 33.9879 118.226 32.6932L118.241 32.686ZM107.161 29.5387C107.368 28.9736 107.59 28.3656 107.833 27.7218C108.076 27.078 108.305 26.4485 108.534 25.8334C108.756 25.2182 108.963 24.6603 109.149 24.1667C109.335 23.6731 109.485 23.2869 109.593 23.0079C109.707 23.2654 109.857 23.6445 110.05 24.1667C110.244 24.6817 110.458 25.254 110.68 25.8691C110.902 26.4843 111.138 27.1209 111.381 27.7719C111.624 28.4228 111.839 29.0165 112.025 29.5458H107.168L107.161 29.5387ZM142.597 24.4171C142.032 23.9307 141.359 23.5659 140.587 23.3155C139.814 23.0723 138.977 22.9507 138.09 22.9507C136.975 22.9507 135.987 23.1438 135.129 23.5372C134.271 23.9307 133.577 24.4743 133.033 25.1753C132.49 24.4743 131.789 23.9235 130.909 23.5372C130.036 23.1438 129.035 22.9507 127.919 22.9507C127.003 22.9507 126.166 23.0723 125.394 23.3155C124.621 23.5587 123.949 23.9235 123.384 24.4171C122.819 24.9035 122.368 25.5043 122.046 26.2196C121.717 26.935 121.56 27.7647 121.56 28.7232V38.3012H126.059V30.068C126.059 29.0737 126.259 28.3584 126.66 27.9292C127.06 27.5 127.611 27.2855 128.319 27.2855C129.027 27.2855 129.636 27.5358 130.079 28.0437C130.522 28.5515 130.751 29.3598 130.751 30.4757V38.294H135.251V30.4757C135.251 29.3598 135.48 28.5515 135.937 28.0437C136.395 27.5358 136.982 27.2855 137.711 27.2855C138.441 27.2855 138.97 27.5 139.357 27.9292C139.75 28.3584 139.943 29.0737 139.943 30.068V38.3012H144.442V28.7232C144.442 27.7647 144.278 26.935 143.956 26.2196C143.627 25.5043 143.183 24.9035 142.618 24.4171H142.597ZM192.997 24.3098C192.296 23.8091 191.474 23.4586 190.522 23.2583C189.571 23.0508 188.555 22.9507 187.475 22.9507C184.163 22.9507 182.504 23.8019 182.504 25.4972C182.504 25.769 182.547 26.0265 182.647 26.2554C182.74 26.4915 182.84 26.6989 182.955 26.8849C183.069 27.0709 183.176 27.2211 183.291 27.3355C183.405 27.45 183.477 27.5287 183.512 27.5716C183.584 27.5144 183.72 27.4357 183.906 27.3355C184.092 27.2354 184.342 27.1424 184.643 27.0422C184.95 26.9421 185.322 26.8634 185.759 26.7919C186.195 26.7204 186.703 26.6917 187.282 26.6917C188.512 26.6917 189.392 26.8849 189.922 27.2783C190.451 27.6717 190.716 28.2082 190.716 28.8877C190.458 28.852 190.122 28.8162 189.721 28.8019C189.321 28.7804 188.82 28.7733 188.226 28.7733C185.844 28.7733 184.099 29.1596 183.005 29.9321C181.903 30.7046 181.359 31.985 181.359 33.7804C181.359 34.4457 181.474 35.0752 181.696 35.6689C181.917 36.2626 182.311 36.7847 182.869 37.2354C183.427 37.686 184.171 38.0437 185.1 38.3012C186.03 38.5659 187.203 38.6946 188.62 38.6946C189.457 38.6946 190.251 38.6731 191.009 38.6374C191.76 38.6016 192.432 38.5515 193.019 38.4943C193.605 38.4371 194.092 38.3799 194.485 38.3298C194.879 38.2797 195.129 38.2368 195.236 38.201V29.3527C195.236 28.1224 195.036 27.0995 194.636 26.2769C194.235 25.4543 193.684 24.7962 192.99 24.3026L192.997 24.3098ZM190.744 35.2254C190.615 35.2683 190.344 35.2969 189.936 35.3255C189.528 35.3541 189.078 35.3684 188.598 35.3684C187.983 35.3684 187.49 35.3112 187.118 35.2039C186.746 35.0966 186.467 34.9679 186.281 34.8105C186.095 34.6531 185.973 34.4814 185.916 34.2812C185.859 34.088 185.83 33.902 185.83 33.7232C185.83 33.4872 185.866 33.2654 185.945 33.0508C186.016 32.8362 186.152 32.6431 186.352 32.4786C186.545 32.3141 186.824 32.1782 187.175 32.0852C187.525 31.985 187.983 31.935 188.541 31.935C189.192 31.935 189.678 31.9493 190.007 31.9779C190.337 32.0065 190.58 32.0422 190.744 32.078V35.2254ZM220.294 26.2125C219.965 25.4972 219.521 24.8963 218.956 24.4099C218.391 23.9235 217.718 23.5587 216.946 23.3083C216.173 23.0651 215.337 22.9435 214.45 22.9435C213.334 22.9435 212.347 23.1367 211.488 23.5301C210.63 23.9235 209.936 24.4671 209.392 25.1681C208.849 24.4671 208.148 23.9164 207.268 23.5301C206.395 23.1367 205.394 22.9435 204.278 22.9435C203.362 22.9435 202.525 23.0651 201.753 23.3083C200.98 23.5515 200.308 23.9164 199.743 24.4099C199.178 24.8963 198.727 25.4972 198.405 26.2125C198.076 26.9278 197.919 27.7576 197.919 28.7161V38.294H202.418V30.0608C202.418 29.0666 202.618 28.3513 203.019 27.9221C203.419 27.4929 203.97 27.2783 204.678 27.2783C205.387 27.2783 205.995 27.5287 206.438 28.0365C206.882 28.5444 207.11 29.3527 207.11 30.4686V38.2869H211.61V30.4686C211.61 29.3527 211.839 28.5444 212.296 28.0365C212.754 27.5287 213.341 27.2783 214.07 27.2783C214.8 27.2783 215.329 27.4929 215.716 27.9221C216.109 28.3513 216.302 29.0666 216.302 30.0608V38.294H220.801V28.7161C220.801 27.7576 220.637 26.9278 220.315 26.2125H220.294ZM177.79 24.4314C177.261 23.9164 176.638 23.5301 175.93 23.2869C175.222 23.0437 174.45 22.9221 173.613 22.9221C172.647 22.9221 171.853 23.058 171.238 23.3298C170.623 23.6016 170.136 23.9092 169.786 24.2382V17.1495C169.671 17.1138 169.421 17.0279 169.02 16.8992C168.62 16.7704 168.169 16.7061 167.668 16.7061C166.96 16.7061 166.395 16.8634 165.966 17.1782C165.537 17.4929 165.322 18.0294 165.322 18.7876V38.294H169.821V30.5616C169.821 29.4457 170.058 28.6302 170.522 28.1009C170.987 27.5716 171.638 27.3069 172.475 27.3069C173.312 27.3069 173.942 27.5287 174.364 27.9793C174.786 28.4299 174.993 29.1524 174.993 30.1467V38.2869H179.492V29.1739C179.492 28.1009 179.342 27.1639 179.049 26.377C178.749 25.583 178.334 24.9321 177.804 24.4171L177.79 24.4314ZM161.874 33.0222C161.481 33.3155 160.909 33.6016 160.158 33.8734C159.407 34.1453 158.505 34.2812 157.461 34.2812C156.624 34.2812 155.844 34.1524 155.129 33.902C154.414 33.6517 153.791 33.2726 153.269 32.7719C152.747 32.2711 152.339 31.656 152.039 30.9121C151.739 30.1681 151.595 29.3098 151.595 28.337C151.595 27.3641 151.731 26.5201 152.003 25.7618C152.275 25.0036 152.654 24.3527 153.148 23.8162C153.641 23.2797 154.221 22.872 154.893 22.5859C155.565 22.2998 156.309 22.1639 157.125 22.1639C157.776 22.1639 158.369 22.2425 158.899 22.3999C159.428 22.5573 159.9 22.7433 160.308 22.9578C160.716 23.1724 161.066 23.4085 161.352 23.6732C161.638 23.9378 161.882 24.1667 162.068 24.3598C162.196 24.2812 162.361 24.1524 162.554 23.9664C162.747 23.7804 162.947 23.5587 163.141 23.294C163.334 23.0294 163.505 22.7361 163.641 22.3999C163.784 22.0709 163.849 21.7132 163.849 21.3484C163.849 20.955 163.756 20.583 163.57 20.2182C163.384 19.8606 163.076 19.5101 162.647 19.181C162.44 19.0451 162.175 18.8877 161.839 18.7089C161.502 18.5301 161.102 18.3656 160.623 18.2082C160.151 18.0508 159.607 17.9221 158.992 17.8291C158.377 17.7289 157.69 17.686 156.924 17.686C155.494 17.686 154.156 17.9221 152.919 18.4013C151.681 18.8806 150.601 19.5744 149.678 20.4829C148.756 21.3913 148.033 22.5072 147.497 23.8234C146.967 25.1395 146.703 26.6488 146.703 28.3513C146.703 30.0537 146.975 31.6131 147.525 32.9221C148.076 34.2311 148.82 35.3255 149.757 36.2053C150.694 37.0852 151.789 37.7432 153.04 38.1796C154.285 38.6159 155.608 38.8377 157.003 38.8377C157.99 38.8377 158.877 38.759 159.657 38.6016C160.437 38.4443 161.116 38.2583 161.696 38.0437C162.275 37.8291 162.754 37.6073 163.133 37.3856C163.512 37.1639 163.806 36.9707 164.013 36.8134H163.956L161.86 33.0365L161.874 33.0222Z" fill="#012169"/>
<path d="M193.391 49.9392C192.718 49.4099 191.924 49.0093 191.016 48.7375C190.108 48.4657 189.142 48.3298 188.126 48.3298C187.11 48.3298 186.116 48.4657 185.222 48.7375C184.321 49.0093 183.527 49.4099 182.847 49.9392C182.161 50.4686 181.624 51.1267 181.231 51.9207C180.837 52.7146 180.644 53.6159 180.644 54.6317V63.6946H185.372V55.7189C185.372 53.6875 186.295 52.6717 188.133 52.6717C189.013 52.6717 189.693 52.9221 190.158 53.4228C190.63 53.9235 190.866 54.6889 190.866 55.7261V63.7018H195.594V54.6388C195.594 53.6231 195.401 52.7146 195.007 51.9278C194.614 51.1338 194.085 50.4757 193.405 49.9464L193.391 49.9392ZM201.331 48.7375C200.587 48.7375 199.993 48.8949 199.543 49.2096C199.092 49.5244 198.87 50.0608 198.87 50.8191V63.6946H203.598V49.181C203.484 49.1453 203.205 49.0594 202.776 48.9307C202.347 48.8019 201.867 48.7375 201.338 48.7375H201.331ZM116.71 53.852C116.123 53.3942 115.401 53.0079 114.535 52.6932C113.677 52.3784 112.676 52.1138 111.545 51.9063L108.326 51.3055C107.718 51.191 107.239 51.0694 106.882 50.9478C106.524 50.8262 106.252 50.6903 106.059 50.5473C105.866 50.4042 105.744 50.254 105.694 50.1038C105.644 49.9536 105.615 49.789 105.615 49.6174C105.615 49.4242 105.651 49.2168 105.723 48.9879C105.794 48.759 105.945 48.5516 106.181 48.3727C106.417 48.1939 106.76 48.0365 107.225 47.9149C107.69 47.7933 108.319 47.7289 109.106 47.7289C109.936 47.7289 110.716 47.7933 111.445 47.9292C112.175 48.0651 112.819 48.2225 113.391 48.4156C113.956 48.6088 114.442 48.8234 114.85 49.0594C115.258 49.2955 115.558 49.5101 115.759 49.7032C115.902 49.6102 116.073 49.4671 116.274 49.2883C116.474 49.1095 116.66 48.8949 116.839 48.6445C117.01 48.3942 117.161 48.1224 117.282 47.8291C117.404 47.5358 117.461 47.2211 117.461 46.8992C117.461 46.4414 117.304 46.048 116.989 45.7118C116.674 45.3756 116.345 45.1181 116.002 44.9249C115.837 44.8319 115.58 44.7032 115.229 44.553C114.872 44.4028 114.414 44.2454 113.849 44.0952C113.284 43.945 112.604 43.8162 111.817 43.7089C111.03 43.6016 110.108 43.5515 109.056 43.5515C107.597 43.5515 106.331 43.7161 105.244 44.0523C104.163 44.3885 103.262 44.8391 102.554 45.4113C101.846 45.9836 101.316 46.656 100.973 47.4285C100.63 48.2011 100.458 49.0237 100.458 49.9035C100.458 50.9121 100.658 51.7633 101.066 52.45C101.474 53.1367 101.989 53.7018 102.633 54.1381C103.269 54.5744 103.992 54.9178 104.8 55.1681C105.608 55.4185 106.417 55.6045 107.232 55.7404L110.329 56.2554C111.402 56.4271 112.139 56.6631 112.533 56.9564C112.926 57.2497 113.126 57.6288 113.126 58.0866C113.126 58.3155 113.083 58.5372 113.005 58.759C112.926 58.9807 112.754 59.1739 112.49 59.3455C112.225 59.5172 111.853 59.6531 111.367 59.7604C110.88 59.8677 110.229 59.9178 109.421 59.9178C108.427 59.9178 107.511 59.8391 106.66 59.6746C105.809 59.5101 105.058 59.3312 104.414 59.1309C103.763 58.9307 103.226 58.7304 102.804 58.5301C102.382 58.3298 102.103 58.1796 101.982 58.0866L99.8859 61.8634C99.986 61.9564 100.294 62.1281 100.809 62.3784C101.324 62.6288 101.996 62.8863 102.826 63.1653C103.656 63.4443 104.621 63.6875 105.723 63.8949C106.824 64.1023 108.033 64.2096 109.349 64.2096C112.246 64.2096 114.485 63.6445 116.073 62.5215C117.661 61.3985 118.455 59.8319 118.455 57.8291C118.455 56.935 118.305 56.1624 118.012 55.5115C117.718 54.8606 117.275 54.3098 116.688 53.852H116.71ZM201.209 42.078C200.465 42.078 199.843 42.3355 199.342 42.8434C198.842 43.3513 198.591 43.9807 198.591 44.7175C198.591 45.4543 198.842 46.0837 199.342 46.5773C199.843 47.0709 200.465 47.3284 201.209 47.3284C201.953 47.3284 202.575 47.078 203.09 46.5773C203.598 46.0766 203.856 45.4614 203.856 44.7175C203.856 43.9736 203.598 43.3513 203.09 42.8434C202.583 42.3355 201.953 42.078 201.209 42.078ZM220.136 51.6703C219.714 50.8477 219.135 50.1896 218.405 49.6889C217.668 49.1882 216.803 48.8377 215.809 48.6302C214.807 48.4228 213.741 48.3227 212.611 48.3227C209.128 48.3227 207.382 49.1739 207.382 50.8763C207.382 51.1481 207.432 51.4056 207.533 51.6417C207.633 51.8777 207.74 52.0852 207.854 52.2711C207.969 52.4571 208.09 52.6073 208.205 52.7289C208.319 52.8505 208.398 52.9221 208.441 52.965C208.52 52.9078 208.656 52.8291 208.849 52.7289C209.042 52.6288 209.306 52.5358 209.628 52.4357C209.95 52.3355 210.344 52.2568 210.801 52.1853C211.259 52.1138 211.796 52.0852 212.404 52.0852C213.698 52.0852 214.621 52.2783 215.179 52.6717C215.737 53.0651 216.016 53.6016 216.016 54.2812C215.744 54.2454 215.394 54.2096 214.972 54.1953C214.55 54.1739 214.027 54.1667 213.398 54.1667C210.894 54.1667 209.063 54.553 207.904 55.3255C206.753 56.098 206.173 57.3856 206.173 59.181C206.173 59.8463 206.288 60.4757 206.524 61.0694C206.76 61.6631 207.168 62.1853 207.754 62.636C208.341 63.0866 209.128 63.4443 210.1 63.7089C211.08 63.9736 212.311 64.1023 213.799 64.1023C214.678 64.1023 215.515 64.0809 216.309 64.0451C217.103 64.0022 217.804 63.9593 218.427 63.8949C219.042 63.8377 219.557 63.7804 219.965 63.7304C220.372 63.6803 220.637 63.6374 220.759 63.6016V54.7461C220.759 53.5158 220.551 52.4857 220.129 51.6631L220.136 51.6703ZM216.045 60.6116C215.909 60.6546 215.623 60.6832 215.193 60.7118C214.764 60.7404 214.292 60.7547 213.784 60.7547C213.141 60.7547 212.618 60.7046 212.225 60.5902C211.832 60.4829 211.538 60.3541 211.345 60.1968C211.152 60.0394 211.023 59.8677 210.966 59.6674C210.909 59.4743 210.88 59.2883 210.88 59.1095C210.88 58.8734 210.916 58.6517 210.995 58.4371C211.073 58.2225 211.216 58.0294 211.417 57.8649C211.624 57.7003 211.91 57.5644 212.282 57.4714C212.654 57.3713 213.133 57.3212 213.72 57.3212C214.407 57.3212 214.922 57.3355 215.258 57.3641C215.601 57.3928 215.859 57.4285 216.038 57.4643V60.6045L216.045 60.6116Z" fill="#012169"/>
<path d="M43.3623 86.1123C66.8798 86.1123 85.9445 67.0475 85.9445 43.53C85.9445 20.0125 66.8798 0.947754 43.3623 0.947754C19.8447 0.947754 0.779999 20.0125 0.779999 43.53C0.779999 67.0475 19.8447 86.1123 43.3623 86.1123Z" fill="white"/>
<path d="M55.7872 4.9178L55.4009 5.44713L56.7957 7.34985L54.4495 7.09234L53.4982 9.24542L52.5468 7.09234L50.2006 7.34985L51.5955 5.44713L50.2078 3.55157C47.9832 3.17245 45.6942 2.97217 43.3623 2.97217C41.0304 2.97217 38.7414 3.17245 36.5168 3.55157L35.1291 5.44713L36.5239 7.34985L34.1777 7.09234L33.2264 9.24542L32.275 7.09234L29.9288 7.34985L31.3236 5.44713L30.9374 4.9178C16.1663 9.66745 5.09331 22.6503 3.11906 38.4657C8.51964 38.4872 13.7342 39.1453 18.6699 40.3398L28.1477 30.862L34.2278 36.9493L43.3551 23.2583L52.4753 36.9493L58.5554 30.862L71.2378 43.5373C72.5468 44.8463 74.4352 45.6832 76.4309 45.6832C78.4266 45.6832 80.2292 44.8749 81.5382 43.5659C82.7614 42.3427 83.5411 40.676 83.6341 38.8305C81.7886 22.8506 70.6656 9.70321 55.78 4.9178H55.7872ZM46.6527 17.5501L44.3065 17.2926L43.3551 19.4457L42.4038 17.2926L40.0575 17.5501L41.4524 15.6474L40.0575 13.7447L42.4038 14.0022L43.3551 11.8491L44.3065 14.0022L46.6527 13.7447L45.2578 15.6474L46.6527 17.5501Z" fill="url(#paint0_radial_2501_923)"/>
<path d="M43.3623 25.2827V27.3571L59.8215 56.1912C59.9645 56.1912 60.1148 56.1983 60.2578 56.1983L44.9717 28.051L43.3623 25.2827ZM53.7056 39.3886L64.3422 55.948C64.4567 55.9336 64.5783 55.9122 64.6927 55.8979L54.1849 38.752L53.7056 39.3886ZM43.3623 29.8893L57.3894 56.0123C57.554 56.0338 57.7185 56.0552 57.883 56.0696L43.3623 27.6003V29.8964V29.8893ZM52.7542 40.6618L62.1391 56.1554C62.2678 56.1554 62.3966 56.1411 62.5325 56.1268L53.2335 40.0181L52.7542 40.6547V40.6618ZM43.3623 40.1468L49.4066 53.802C49.6427 53.9093 49.8859 54.0166 50.1291 54.1239L43.3623 37.915V40.1468ZM43.3623 44.6747L46.4595 52.1711C46.7385 52.35 47.0175 52.5288 47.3108 52.7005L43.3623 42.5431V44.6819V44.6747ZM43.3623 49.7176C43.6627 50.0109 43.9846 50.297 44.3136 50.5688L43.3623 47.9365V49.7176ZM43.3623 36.2269L52.1892 54.8964C52.3966 54.9608 52.604 55.0252 52.8115 55.0896L43.3551 33.9451V36.2269H43.3623ZM43.3623 32.8292L54.8501 55.5975C55.0361 55.6332 55.2221 55.6761 55.408 55.7119L43.3694 30.5259V32.8221L43.3623 32.8292ZM54.5926 38.2012L66.4095 55.5903C66.5168 55.5688 66.6169 55.5402 66.7242 55.5188L55.0647 37.5645L54.5926 38.2012ZM76.9316 48.0653L78.2335 49.3171C78.2764 49.2741 78.3193 49.2241 78.3623 49.1811L77.2392 48.051C77.1391 48.0581 77.0389 48.0581 76.9388 48.0653H76.9316ZM55.4223 37.0924L68.3623 55.0967C68.4552 55.0681 68.5482 55.0395 68.6412 55.0109L55.8944 36.463L55.4223 37.0924ZM72.2607 47.1425L76.0876 51.2126C76.1448 51.1697 76.1949 51.1339 76.2521 51.091L72.9688 47.4429C72.7328 47.35 72.4896 47.2498 72.2607 47.1425ZM78.7771 47.7934C78.6985 47.8149 78.6269 47.8292 78.5482 47.8435L79.099 48.3514C79.1348 48.3085 79.1777 48.2584 79.2135 48.2155L78.77 47.7934H78.7771ZM74.9502 47.9794L77.2249 50.2827C77.275 50.2398 77.3179 50.1969 77.368 50.154L75.358 48.0366C75.2221 48.0223 75.079 48.0009 74.9431 47.9866L74.9502 47.9794ZM56.1949 36.0624L70.1863 54.4816C70.2721 54.453 70.358 54.4172 70.4366 54.3886L56.667 35.4401L56.1949 36.0696V36.0624ZM58.1548 33.4301L74.8143 52.1211C74.8716 52.0781 74.9359 52.0424 74.9932 51.9995L58.5625 32.8793L58.1548 33.4301ZM56.903 35.111L71.8673 53.7734C71.9459 53.7376 72.0175 53.7019 72.089 53.6661L57.368 34.4887L56.903 35.111ZM57.5611 34.2312L73.4123 52.9723C73.4767 52.9365 73.5482 52.9007 73.6126 52.8578L58.0189 33.6089L57.5611 34.2241V34.2312Z" fill="url(#paint1_linear_2501_923)"/>
<path d="M20.1148 56.5916C28.9202 54.8677 37.976 55.3756 45.9302 58.4299C48.6842 59.46 51.7886 60.1753 55.0647 60.5758C57.5969 60.8977 60.1791 60.8405 62.7256 60.4256C66.6813 59.789 70.5368 58.3012 73.8916 56.0336C75.4152 55.0179 76.8387 53.8448 78.1191 52.5143C81.3165 49.2883 83.255 45.4328 83.9059 41.4414C83.8844 41.0122 83.8558 40.583 83.8201 40.1538C83.1191 44.2454 80.9517 48.1867 77.3465 51.4128C75.9231 52.7003 74.3637 53.809 72.6899 54.7461C69.0347 56.8062 64.8859 58.0222 60.687 58.3369C57.9975 58.5444 55.2793 58.3798 52.6613 57.8434C49.285 57.1567 46.0947 55.9979 43.3337 54.367C35.2936 49.5887 25.6727 47.4213 15.9803 47.7003C13.8773 47.7504 11.7671 47.9077 9.66413 48.1867C7.5182 48.4657 5.38659 48.8663 3.27643 49.3884C3.86298 53.4299 5.04324 57.2854 6.73136 60.8477C9.22779 59.6817 11.8172 58.7089 14.4424 57.9364C16.3165 57.3784 18.2049 56.9278 20.1148 56.5773V56.5916ZM77.4967 59.8748C75.0361 62.7432 72.0676 65.0823 68.8415 66.6631C66.7457 67.7003 64.5354 68.4156 62.2822 68.7447C59.3136 69.1953 56.4452 69.8176 53.7414 70.5758C46.2593 72.6288 39.099 76.9349 33.0404 82.7432C36.3451 83.6159 39.8143 84.0808 43.398 84.0808C43.4123 84.0808 43.4195 84.0808 43.4338 84.0808C49.5711 77.9793 56.8601 73.48 64.6927 71.47C70.172 70.068 75.1219 66.2268 78.6985 61.1481C80.4224 58.7017 81.8244 55.9621 82.8186 53.0794C83.2264 51.3913 83.5268 49.6602 83.7199 47.9006C83.0761 50.6688 81.9674 53.3441 80.451 55.8047C79.5783 57.2497 78.584 58.6159 77.4967 59.8748ZM83.9488 43.015C83.3193 46.799 81.6169 50.4685 78.8988 53.6159C77.7543 54.9821 76.4739 56.2196 75.0933 57.314C72.0389 59.7819 68.4767 61.5558 64.7643 62.5072C62.368 63.1295 59.9073 63.4013 57.4681 63.3012C54.2993 63.1796 51.2664 62.9149 48.5339 62.4786C40.6727 61.1481 32.182 62.3069 24.2564 65.4685C22.554 66.1195 20.873 66.8634 19.2278 67.6931C17.2822 68.666 15.3937 69.7747 13.5697 70.9907C16.2521 73.902 19.3494 76.4127 22.7757 78.4442C23.1834 78.108 23.5983 77.7718 24.0132 77.4428C25.4295 76.3341 26.8959 75.2969 28.3909 74.3455C35.4367 69.7389 43.3623 66.9135 51.1377 66.52C53.8558 66.3555 56.8101 66.1767 59.8787 66.0122C62.2249 65.8977 64.5568 65.397 66.8029 64.5744C70.2721 63.3083 73.5339 61.2482 76.295 58.5873C77.5254 57.407 78.6627 56.1123 79.6713 54.7032C81.8387 51.7633 83.2836 48.4442 83.9202 45.0179C83.9345 44.5243 83.9488 44.0236 83.9488 43.5229C83.9488 43.3512 83.9488 43.1796 83.9488 43.0079V43.015Z" fill="url(#paint2_linear_2501_923)"/>
</g>
<defs>
<radialGradient id="paint0_radial_2501_923" cx="0" cy="0" r="1" gradientUnits="userSpaceOnUse" gradientTransform="translate(43.2621 43.4228) scale(40.5293 40.5293)">
<stop stop-color="#27509A"/>
<stop offset="1" stop-color="#012169"/>
</radialGradient>
<linearGradient id="paint1_linear_2501_923" x1="61.2879" y1="25.2827" x2="61.2879" y2="56.1912" gradientUnits="userSpaceOnUse">
<stop stop-color="#C4C4C4"/>
<stop offset="1" stop-color="#C4C4C4" stop-opacity="0"/>
</linearGradient>
<linearGradient id="paint2_linear_2501_923" x1="13.5482" y1="72.6717" x2="80.3222" y2="34.1166" gradientUnits="userSpaceOnUse">
<stop stop-color="#C73657"/>
<stop offset="0.4" stop-color="#B71234"/>
<stop offset="0.6" stop-color="#B71234"/>
</linearGradient>
<clipPath id="clip0_2501_923">
<rect width="220" height="85.1645" fill="white" transform="translate(0.779999 0.947754)"/>
</clipPath>
</defs>
</svg>
