<svg width="150" height="40" viewBox="0 0 150 40" fill="none" xmlns="http://www.w3.org/2000/svg">
<path d="M106.74 25.1893C109.009 23.6059 111.489 22.4248 111.632 22.6395H111.633C111.757 22.8262 109.979 23.8753 106.73 26.7235C105.725 27.6043 104.096 29.0812 101.771 30.1238C100.911 30.5097 99.8519 30.8823 99.1526 30.3885C98.8406 30.1669 98.689 29.8375 98.6116 29.5936C99.4717 29.4505 100.76 29.1512 102.179 28.4569C104.076 27.528 104.618 26.6693 106.74 25.1893ZM119.03 22.6395C119.173 22.4248 121.652 23.606 123.921 25.1893C126.043 26.6694 126.585 27.528 128.483 28.4569C129.901 29.1511 131.19 29.4505 132.05 29.5936C131.973 29.8375 131.821 30.1669 131.509 30.3885C130.81 30.8822 129.751 30.5097 128.891 30.1238C126.565 29.0812 124.936 27.6043 123.932 26.7235C120.682 23.8748 118.904 22.826 119.029 22.6395H119.03ZM107.866 22.0662C109.409 21.5267 111.142 21.2873 111.223 21.536C111.3 21.7741 109.776 22.2193 107.612 23.5115C104.507 25.3658 104.083 26.5751 101.593 27.6072C100.253 28.1631 99.0635 28.3568 98.3137 28.4354C98.133 27.7915 97.9534 27.1476 97.7727 26.5037C98.7607 26.5858 100.184 26.5499 101.615 25.8533C102.495 25.4241 102.55 25.1496 104.067 24.1199C105.119 23.4045 106.302 22.6139 107.866 22.0662ZM119.439 21.536C119.52 21.2873 121.252 21.5268 122.795 22.0662C124.359 22.6139 125.542 23.4045 126.595 24.1199C128.112 25.1496 128.166 25.4241 129.046 25.8533C130.478 26.55 131.901 26.5858 132.889 26.5037C132.708 27.1476 132.529 27.7915 132.348 28.4354C131.598 28.3568 130.408 28.1631 129.069 27.6072C126.579 26.5751 126.155 25.3658 123.05 23.5115C120.886 22.2195 119.362 21.7741 119.439 21.536ZM103.129 23.3582C102.768 23.7886 102.068 24.5055 100.964 25.0027C99.4552 25.683 98.0809 25.5536 97.5071 25.4656C97.3452 24.8957 97.1827 24.3246 97.0208 23.7547C98.2586 23.7958 99.6295 23.7673 101.107 23.6219C101.813 23.5527 102.488 23.4628 103.127 23.3572L103.129 23.3582ZM127.532 23.3572C128.172 23.4628 128.847 23.5527 129.553 23.6219C131.03 23.7673 132.401 23.7958 133.639 23.7547C133.477 24.3246 133.314 24.8957 133.153 25.4656C132.579 25.5536 131.204 25.683 129.696 25.0027C128.592 24.5055 127.892 23.7886 127.531 23.3582L127.532 23.3572ZM112.97 16.661C113.194 16.661 113.376 16.8432 113.376 17.0672V23.1942C113.376 23.4181 113.194 23.6004 112.97 23.6004C112.746 23.6004 112.564 23.4182 112.564 23.1942V17.0672C112.564 16.8432 112.746 16.661 112.97 16.661ZM114.539 16.661C114.764 16.661 114.946 16.8431 114.946 17.0672V23.1932C114.945 23.4172 114.763 23.5984 114.539 23.5985C114.315 23.5985 114.133 23.4172 114.133 23.1932V17.0672C114.133 16.8431 114.315 16.661 114.539 16.661ZM116.106 16.661C116.33 16.661 116.512 16.8431 116.512 17.0672V23.1932C116.512 23.4172 116.33 23.5984 116.106 23.5985C115.882 23.5985 115.7 23.4172 115.699 23.1932V17.0672C115.699 16.8431 115.881 16.661 116.106 16.661ZM117.675 16.661C117.899 16.661 118.081 16.8431 118.081 17.0672V23.1932C118.081 23.4172 117.899 23.5984 117.675 23.5985C117.451 23.5985 117.269 23.4172 117.269 23.1932V17.0672C117.269 16.8431 117.451 16.661 117.675 16.661ZM109.232 20.9715C107.765 21.4907 105.998 21.9935 103.967 22.3299C101.148 22.7978 98.666 22.8087 96.7112 22.6727C96.5164 22.0886 96.32 21.503 96.1252 20.9178C100.494 20.9365 104.863 20.9527 109.232 20.9715ZM133.95 22.6727C131.996 22.8087 129.514 22.7978 126.695 22.3299C124.663 21.9934 122.895 21.4909 121.429 20.9715C125.798 20.9527 130.167 20.9366 134.536 20.9178C134.342 21.503 134.145 22.0886 133.95 22.6727ZM98.1467 11.534C98.4999 11.5458 99.015 11.5892 99.6155 11.7322C100.973 12.0571 101.896 12.6855 102.399 13.035C104.856 14.745 105.278 15.3611 106.749 16.3475C109.236 18.0141 111.302 18.4457 111.223 18.699L111.221 18.6971C111.158 18.9023 109.767 18.7206 108.56 18.3875C108.033 18.243 105.645 17.5449 103.05 15.4295C102.054 14.6168 101.911 14.3155 101.117 13.9285C99.8479 13.3082 98.5772 13.2803 97.6936 13.3553C97.845 12.7478 97.9954 12.1415 98.1467 11.534ZM132.967 13.3553C132.083 13.2802 130.813 13.3081 129.543 13.9285C128.75 14.3156 128.607 14.6168 127.611 15.4295C125.016 17.5446 122.628 18.2429 122.101 18.3875C120.893 18.7206 119.502 18.9023 119.439 18.6971L119.438 18.699C119.359 18.4457 121.425 18.0141 123.911 16.3475C125.383 15.3612 125.805 14.7449 128.262 13.035C128.764 12.6855 129.688 12.0571 131.045 11.7322C131.646 11.5892 132.161 11.5457 132.514 11.534C132.665 12.1414 132.816 12.7478 132.967 13.3553ZM96.6672 16.8992C98.236 16.8007 99.5868 16.8636 100.643 16.9656C101.458 17.0442 102.872 17.1866 104.662 17.6932C105.844 18.0274 106.813 18.4134 107.524 18.7313H107.522L96.1692 18.699C96.3358 18.0997 96.5018 17.4986 96.6672 16.8992ZM130.019 16.9656C131.075 16.8636 132.425 16.8008 133.993 16.8992C134.159 17.4986 134.325 18.0997 134.491 18.699L123.139 18.7313H123.138C123.849 18.4134 124.817 18.0274 125.998 17.6932C127.789 17.1865 129.203 17.0442 130.019 16.9656ZM98.9866 9.50373C100.045 8.68993 102.302 10.0529 103.127 10.5516C104.518 11.3913 105.036 12.0345 106.485 13.3445C109.491 16.0648 111.656 17.2763 111.521 17.4949C111.405 17.6826 109.766 16.8793 108.87 16.3914C108.368 16.1181 107.423 15.5754 105.303 13.9744C103.191 12.3794 103.144 12.1756 102.254 11.6678C100.785 10.8282 99.393 10.5191 98.4895 10.3865C98.5517 10.0981 98.6805 9.73944 98.9866 9.50373ZM127.532 10.5516C128.357 10.0531 130.616 8.68977 131.674 9.50373C131.98 9.73944 132.109 10.0981 132.171 10.3865C131.268 10.5191 129.875 10.8281 128.406 11.6678C127.517 12.1754 127.469 12.3797 125.358 13.9744C123.237 15.5753 122.293 16.1181 121.79 16.3914C120.895 16.8793 119.256 17.6826 119.14 17.4949C119.005 17.2765 121.169 16.0651 124.176 13.3445C125.625 12.0346 126.142 11.3913 127.532 10.5516ZM102.355 16.2137L102.353 16.2147L102.351 16.2127C102.352 16.2129 102.354 16.2135 102.355 16.2137ZM128.306 16.2147L128.304 16.2137L128.307 16.2127L128.306 16.2147ZM97.4504 14.3485C98.0688 14.298 99.3949 14.2785 100.785 15.0115C101.5 15.3885 102.012 15.8483 102.351 16.2127C101.856 16.1145 101.33 16.0265 100.775 15.9598C99.3715 15.7898 98.0904 15.7803 96.9758 15.8494C97.1342 15.3488 97.2921 14.8491 97.4504 14.3485ZM129.873 15.0115C131.264 14.2785 132.59 14.298 133.208 14.3485C133.367 14.8491 133.524 15.3488 133.683 15.8494C132.568 15.7803 131.287 15.7898 129.884 15.9598C129.329 16.0265 128.802 16.1144 128.307 16.2127C128.646 15.8482 129.159 15.3886 129.873 15.0115Z" fill="#F7F9FA"/>
<path d="M9.3 19.8249C10.2333 19.9916 11.025 20.4833 11.675 21.2999C12.325 22.1166 12.65 23.0416 12.65 24.0749C12.65 24.9583 12.4167 25.7583 11.95 26.4749C11.5 27.1749 10.8417 27.7333 9.975 28.1499C9.10833 28.5499 8.1 28.7499 6.95 28.7499H0V11.3749H6.625C7.80833 11.3749 8.825 11.5749 9.675 11.9749C10.525 12.3749 11.1667 12.9166 11.6 13.5999C12.0333 14.2666 12.25 15.0166 12.25 15.8499C12.25 16.8499 11.9833 17.6833 11.45 18.3499C10.9167 19.0166 10.2 19.5083 9.3 19.8249ZM2.85 18.6749H6.375C7.30833 18.6749 8.03333 18.4666 8.55 18.0499C9.08333 17.6166 9.35 16.9999 9.35 16.1999C9.35 15.4166 9.08333 14.8083 8.55 14.3749C8.03333 13.9249 7.30833 13.6999 6.375 13.6999H2.85V18.6749ZM6.7 26.4249C7.66667 26.4249 8.425 26.1916 8.975 25.7249C9.525 25.2583 9.8 24.6083 9.8 23.7749C9.8 22.9249 9.50833 22.2499 8.925 21.7499C8.34167 21.2499 7.56667 20.9999 6.6 20.9999H2.85V26.4249H6.7Z" fill="#F7F9FA"/>
<path d="M27.3721 21.5249C27.3721 22.0416 27.3387 22.5083 27.2721 22.9249H16.7471C16.8304 24.0249 17.2387 24.9083 17.9721 25.5749C18.7054 26.2416 19.6054 26.5749 20.6721 26.5749C22.2054 26.5749 23.2887 25.9333 23.9221 24.6499H26.9971C26.5804 25.9166 25.8221 26.9583 24.7221 27.7749C23.6387 28.5749 22.2887 28.9749 20.6721 28.9749C19.3554 28.9749 18.1721 28.6833 17.1221 28.0999C16.0887 27.4999 15.2721 26.6666 14.6721 25.5999C14.0887 24.5166 13.7971 23.2666 13.7971 21.8499C13.7971 20.4333 14.0804 19.1916 14.6471 18.1249C15.2304 17.0416 16.0387 16.2083 17.0721 15.6249C18.1221 15.0416 19.3221 14.7499 20.6721 14.7499C21.9721 14.7499 23.1304 15.0333 24.1471 15.5999C25.1637 16.1666 25.9554 16.9666 26.5221 17.9999C27.0887 19.0166 27.3721 20.1916 27.3721 21.5249ZM24.3971 20.6249C24.3804 19.5749 24.0054 18.7333 23.2721 18.0999C22.5387 17.4666 21.6304 17.1499 20.5471 17.1499C19.5637 17.1499 18.7221 17.4666 18.0221 18.0999C17.3221 18.7166 16.9054 19.5583 16.7721 20.6249H24.3971Z" fill="#F7F9FA"/>
<path d="M36.1268 14.7499C37.2101 14.7499 38.1768 14.9749 39.0268 15.4249C39.8934 15.8749 40.5684 16.5416 41.0518 17.4249C41.5351 18.3083 41.7768 19.3749 41.7768 20.6249V28.7499H38.9518V21.0499C38.9518 19.8166 38.6434 18.8749 38.0268 18.2249C37.4101 17.5583 36.5684 17.2249 35.5018 17.2249C34.4351 17.2249 33.5851 17.5583 32.9518 18.2249C32.3351 18.8749 32.0268 19.8166 32.0268 21.0499V28.7499H29.1768V14.9749H32.0268V16.5499C32.4934 15.9833 33.0851 15.5416 33.8018 15.2249C34.5351 14.9083 35.3101 14.7499 36.1268 14.7499Z" fill="#F7F9FA"/>
<path d="M49.4121 28.9749C48.3288 28.9749 47.3538 28.7833 46.4871 28.3999C45.6371 27.9999 44.9621 27.4666 44.4621 26.7999C43.9621 26.1166 43.6954 25.3583 43.6621 24.5249H46.6121C46.6621 25.1083 46.9371 25.5999 47.4371 25.9999C47.9538 26.3833 48.5954 26.5749 49.3621 26.5749C50.1621 26.5749 50.7788 26.4249 51.2121 26.1249C51.6621 25.8083 51.8871 25.4083 51.8871 24.9249C51.8871 24.4083 51.6371 24.0249 51.1371 23.7749C50.6538 23.5249 49.8788 23.2499 48.8121 22.9499C47.7788 22.6666 46.9371 22.3916 46.2871 22.1249C45.6371 21.8583 45.0704 21.4499 44.5871 20.8999C44.1204 20.3499 43.8871 19.6249 43.8871 18.7249C43.8871 17.9916 44.1038 17.3249 44.5371 16.7249C44.9704 16.1083 45.5871 15.6249 46.3871 15.2749C47.2038 14.9249 48.1371 14.7499 49.1871 14.7499C50.7538 14.7499 52.0121 15.1499 52.9621 15.9499C53.9288 16.7333 54.4454 17.8083 54.5121 19.1749H51.6621C51.6121 18.5583 51.3621 18.0666 50.9121 17.6999C50.4621 17.3333 49.8538 17.1499 49.0871 17.1499C48.3371 17.1499 47.7621 17.2916 47.3621 17.5749C46.9621 17.8583 46.7621 18.2333 46.7621 18.6999C46.7621 19.0666 46.8954 19.3749 47.1621 19.6249C47.4288 19.8749 47.7538 20.0749 48.1371 20.2249C48.5204 20.3583 49.0871 20.5333 49.8371 20.7499C50.8371 21.0166 51.6538 21.2916 52.2871 21.5749C52.9371 21.8416 53.4954 22.2416 53.9621 22.7749C54.4288 23.3083 54.6704 24.0166 54.6871 24.8999C54.6871 25.6833 54.4704 26.3833 54.0371 26.9999C53.6038 27.6166 52.9871 28.0999 52.1871 28.4499C51.4038 28.7999 50.4788 28.9749 49.4121 28.9749Z" fill="#F7F9FA"/>
<path d="M62.7416 28.9749C61.4416 28.9749 60.2666 28.6833 59.2166 28.0999C58.1666 27.4999 57.3416 26.6666 56.7416 25.5999C56.1416 24.5166 55.8416 23.2666 55.8416 21.8499C55.8416 20.4499 56.1499 19.2083 56.7666 18.1249C57.3833 17.0416 58.2249 16.2083 59.2916 15.6249C60.3583 15.0416 61.5499 14.7499 62.8666 14.7499C64.1833 14.7499 65.3749 15.0416 66.4416 15.6249C67.5083 16.2083 68.3499 17.0416 68.9666 18.1249C69.5833 19.2083 69.8916 20.4499 69.8916 21.8499C69.8916 23.2499 69.5749 24.4916 68.9416 25.5749C68.3083 26.6583 67.4416 27.4999 66.3416 28.0999C65.2583 28.6833 64.0583 28.9749 62.7416 28.9749ZM62.7416 26.4999C63.4749 26.4999 64.1583 26.3249 64.7916 25.9749C65.4416 25.6249 65.9666 25.0999 66.3666 24.3999C66.7666 23.6999 66.9666 22.8499 66.9666 21.8499C66.9666 20.8499 66.7749 20.0083 66.3916 19.3249C66.0083 18.6249 65.4999 18.0999 64.8666 17.7499C64.2333 17.3999 63.5499 17.2249 62.8166 17.2249C62.0833 17.2249 61.3999 17.3999 60.7666 17.7499C60.1499 18.0999 59.6583 18.6249 59.2916 19.3249C58.9249 20.0083 58.7416 20.8499 58.7416 21.8499C58.7416 23.3333 59.1166 24.4833 59.8666 25.2999C60.6333 26.0999 61.5916 26.4999 62.7416 26.4999Z" fill="#F7F9FA"/>
<path d="M78.659 14.7499C79.7423 14.7499 80.709 14.9749 81.559 15.4249C82.4257 15.8749 83.1007 16.5416 83.584 17.4249C84.0673 18.3083 84.309 19.3749 84.309 20.6249V28.7499H81.484V21.0499C81.484 19.8166 81.1757 18.8749 80.559 18.2249C79.9423 17.5583 79.1007 17.2249 78.034 17.2249C76.9673 17.2249 76.1173 17.5583 75.484 18.2249C74.8673 18.8749 74.559 19.8166 74.559 21.0499V28.7499H71.709V14.9749H74.559V16.5499C75.0257 15.9833 75.6173 15.5416 76.334 15.2249C77.0673 14.9083 77.8423 14.7499 78.659 14.7499Z" fill="#F7F9FA"/>
</svg>
