<svg width="86" height="86" viewBox="0 0 87 87" fill="none" xmlns="http://www.w3.org/2000/svg">
<path d="M43.3623 86.1123C66.8798 86.1123 85.9445 67.0475 85.9445 43.53C85.9445 20.0125 66.8798 0.947754 43.3623 0.947754C19.8447 0.947754 0.779999 20.0125 0.779999 43.53C0.779999 67.0475 19.8447 86.1123 43.3623 86.1123Z" fill="white"/>
<path d="M55.7872 4.9178L55.4009 5.44713L56.7957 7.34985L54.4495 7.09234L53.4982 9.24542L52.5468 7.09234L50.2006 7.34985L51.5955 5.44713L50.2078 3.55157C47.9832 3.17245 45.6942 2.97217 43.3623 2.97217C41.0304 2.97217 38.7414 3.17245 36.5168 3.55157L35.1291 5.44713L36.5239 7.34985L34.1777 7.09234L33.2264 9.24542L32.275 7.09234L29.9288 7.34985L31.3236 5.44713L30.9374 4.9178C16.1663 9.66745 5.09331 22.6503 3.11906 38.4657C8.51964 38.4872 13.7342 39.1453 18.6699 40.3398L28.1477 30.862L34.2278 36.9493L43.3551 23.2583L52.4753 36.9493L58.5554 30.862L71.2378 43.5373C72.5468 44.8463 74.4352 45.6832 76.4309 45.6832C78.4266 45.6832 80.2292 44.8749 81.5382 43.5659C82.7614 42.3427 83.5411 40.676 83.6341 38.8305C81.7886 22.8506 70.6656 9.70321 55.78 4.9178H55.7872ZM46.6527 17.5501L44.3065 17.2926L43.3551 19.4457L42.4038 17.2926L40.0575 17.5501L41.4524 15.6474L40.0575 13.7447L42.4038 14.0022L43.3551 11.8491L44.3065 14.0022L46.6527 13.7447L45.2578 15.6474L46.6527 17.5501Z" fill="url(#paint0)"/>
<path d="M43.3623 25.2827V27.3571L59.8215 56.1912C59.9645 56.1912 60.1148 56.1983 60.2578 56.1983L44.9717 28.051L43.3623 25.2827ZM53.7056 39.3886L64.3422 55.948C64.4567 55.9336 64.5783 55.9122 64.6927 55.8979L54.1849 38.752L53.7056 39.3886ZM43.3623 29.8893L57.3894 56.0123C57.554 56.0338 57.7185 56.0552 57.883 56.0696L43.3623 27.6003V29.8964V29.8893ZM52.7542 40.6618L62.1391 56.1554C62.2678 56.1554 62.3966 56.1411 62.5325 56.1268L53.2335 40.0181L52.7542 40.6547V40.6618ZM43.3623 40.1468L49.4066 53.802C49.6427 53.9093 49.8859 54.0166 50.1291 54.1239L43.3623 37.915V40.1468ZM43.3623 44.6747L46.4595 52.1711C46.7385 52.35 47.0175 52.5288 47.3108 52.7005L43.3623 42.5431V44.6819V44.6747ZM43.3623 49.7176C43.6627 50.0109 43.9846 50.297 44.3136 50.5688L43.3623 47.9365V49.7176ZM43.3623 36.2269L52.1892 54.8964C52.3966 54.9608 52.604 55.0252 52.8115 55.0896L43.3551 33.9451V36.2269H43.3623ZM43.3623 32.8292L54.8501 55.5975C55.0361 55.6332 55.2221 55.6761 55.408 55.7119L43.3694 30.5259V32.8221L43.3623 32.8292ZM54.5926 38.2012L66.4095 55.5903C66.5168 55.5688 66.6169 55.5402 66.7242 55.5188L55.0647 37.5645L54.5926 38.2012ZM76.9316 48.0653L78.2335 49.3171C78.2764 49.2741 78.3193 49.2241 78.3623 49.1811L77.2392 48.051C77.1391 48.0581 77.0389 48.0581 76.9388 48.0653H76.9316ZM55.4223 37.0924L68.3623 55.0967C68.4552 55.0681 68.5482 55.0395 68.6412 55.0109L55.8944 36.463L55.4223 37.0924ZM72.2607 47.1425L76.0876 51.2126C76.1448 51.1697 76.1949 51.1339 76.2521 51.091L72.9688 47.4429C72.7328 47.35 72.4896 47.2498 72.2607 47.1425ZM78.7771 47.7934C78.6985 47.8149 78.6269 47.8292 78.5482 47.8435L79.099 48.3514C79.1348 48.3085 79.1777 48.2584 79.2135 48.2155L78.77 47.7934H78.7771ZM74.9502 47.9794L77.2249 50.2827C77.275 50.2398 77.3179 50.1969 77.368 50.154L75.358 48.0366C75.2221 48.0223 75.079 48.0009 74.9431 47.9866L74.9502 47.9794ZM56.1949 36.0624L70.1863 54.4816C70.2721 54.453 70.358 54.4172 70.4366 54.3886L56.667 35.4401L56.1949 36.0696V36.0624ZM58.1548 33.4301L74.8143 52.1211C74.8716 52.0781 74.9359 52.0424 74.9932 51.9995L58.5625 32.8793L58.1548 33.4301ZM56.903 35.111L71.8673 53.7734C71.9459 53.7376 72.0175 53.7019 72.089 53.6661L57.368 34.4887L56.903 35.111ZM57.5611 34.2312L73.4123 52.9723C73.4767 52.9365 73.5482 52.9007 73.6126 52.8578L58.0189 33.6089L57.5611 34.2241V34.2312Z" fill="url(#paint1)"/>
<path d="M20.1148 56.5916C28.9202 54.8677 37.976 55.3756 45.9302 58.4299C48.6842 59.46 51.7886 60.1753 55.0647 60.5758C57.5969 60.8977 60.1791 60.8405 62.7256 60.4256C66.6813 59.789 70.5368 58.3012 73.8916 56.0336C75.4152 55.0179 76.8387 53.8448 78.1191 52.5143C81.3165 49.2883 83.255 45.4328 83.9059 41.4414C83.8844 41.0122 83.8558 40.583 83.8201 40.1538C83.1191 44.2454 80.9517 48.1867 77.3465 51.4128C75.9231 52.7003 74.3637 53.809 72.6899 54.7461C69.0347 56.8062 64.8859 58.0222 60.687 58.3369C57.9975 58.5444 55.2793 58.3798 52.6613 57.8434C49.285 57.1567 46.0947 55.9979 43.3337 54.367C35.2936 49.5887 25.6727 47.4213 15.9803 47.7003C13.8773 47.7504 11.7671 47.9077 9.66413 48.1867C7.5182 48.4657 5.38659 48.8663 3.27643 49.3884C3.86298 53.4299 5.04324 57.2854 6.73136 60.8477C9.22779 59.6817 11.8172 58.7089 14.4424 57.9364C16.3165 57.3784 18.2049 56.9278 20.1148 56.5773V56.5916ZM77.4967 59.8748C75.0361 62.7432 72.0676 65.0823 68.8415 66.6631C66.7457 67.7003 64.5354 68.4156 62.2822 68.7447C59.3136 69.1953 56.4452 69.8176 53.7414 70.5758C46.2593 72.6288 39.099 76.9349 33.0404 82.7432C36.3451 83.6159 39.8143 84.0808 43.398 84.0808C43.4123 84.0808 43.4195 84.0808 43.4338 84.0808C49.5711 77.9793 56.8601 73.48 64.6927 71.47C70.172 70.068 75.1219 66.2268 78.6985 61.1481C80.4224 58.7017 81.8244 55.9621 82.8186 53.0794C83.2264 51.3913 83.5268 49.6602 83.7199 47.9006C83.0761 50.6688 81.9674 53.3441 80.451 55.8047C79.5783 57.2497 78.584 58.6159 77.4967 59.8748ZM83.9488 43.015C83.3193 46.799 81.6169 50.4685 78.8988 53.6159C77.7543 54.9821 76.4739 56.2196 75.0933 57.314C72.0389 59.7819 68.4767 61.5558 64.7643 62.5072C62.368 63.1295 59.9073 63.4013 57.4681 63.3012C54.2993 63.1796 51.2664 62.9149 48.5339 62.4786C40.6727 61.1481 32.182 62.3069 24.2564 65.4685C22.554 66.1195 20.873 66.8634 19.2278 67.6931C17.2822 68.666 15.3937 69.7747 13.5697 70.9907C16.2521 73.902 19.3494 76.4127 22.7757 78.4442C23.1834 78.108 23.5983 77.7718 24.0132 77.4428C25.4295 76.3341 26.8959 75.2969 28.3909 74.3455C35.4367 69.7389 43.3623 66.9135 51.1377 66.52C53.8558 66.3555 56.8101 66.1767 59.8787 66.0122C62.2249 65.8977 64.5568 65.397 66.8029 64.5744C70.2721 63.3083 73.5339 61.2482 76.295 58.5873C77.5254 57.407 78.6627 56.1123 79.6713 54.7032C81.8387 51.7633 83.2836 48.4442 83.9202 45.0179C83.9345 44.5243 83.9488 44.0236 83.9488 43.5229C83.9488 43.3512 83.9488 43.1796 83.9488 43.0079V43.015Z" fill="url(#paint2)"/>
<defs>
<radialGradient id="paint0" cx="0" cy="0" r="1" gradientUnits="userSpaceOnUse" gradientTransform="translate(43.2621 43.4228) scale(40.5293 40.5293)">
<stop stop-color="#27509A"/>
<stop offset="1" stop-color="#012169"/>
</radialGradient>
<linearGradient id="paint1" x1="61.2879" y1="25.2827" x2="61.2879" y2="56.1912" gradientUnits="userSpaceOnUse">
<stop stop-color="#C4C4C4"/>
<stop offset="1" stop-color="#C4C4C4" stop-opacity="0"/>
</linearGradient>
<linearGradient id="paint2" x1="13.5482" y1="72.6717" x2="80.3222" y2="34.1166" gradientUnits="userSpaceOnUse">
<stop stop-color="#C73657"/>
<stop offset="0.4" stop-color="#B71234"/>
<stop offset="0.6" stop-color="#B71234"/>
</linearGradient>
</defs>
</svg>
