<svg width="112" height="33" viewBox="0 0 112 33" fill="none" xmlns="http://www.w3.org/2000/svg">
<g clip-path="url(#clip0_7504_26879)">
<path fill-rule="evenodd" clip-rule="evenodd" d="M16.2814 31.0052C24.206 31.0052 30.6301 24.5024 30.6301 16.4808C30.6301 8.45913 24.206 1.95632 16.2814 1.95632C8.35681 1.95632 1.93265 8.45913 1.93265 16.4808C1.93265 24.5024 8.35681 31.0052 16.2814 31.0052ZM16.2814 32.9615C25.2734 32.9615 32.5628 25.5828 32.5628 16.4808C32.5628 7.37869 25.2734 0 16.2814 0C7.28943 0 0 7.37869 0 16.4808C0 25.5828 7.28943 32.9615 16.2814 32.9615Z" fill="#433A32"/>
<path fill-rule="evenodd" clip-rule="evenodd" d="M24.8959 18.2177C25.2839 18.5886 25.3014 19.2077 24.935 19.6004L17.2478 27.8394V32.0218C17.2478 32.5621 16.8151 33 16.2814 33C15.7478 33 15.3151 32.5621 15.3151 32.0218V27.891L6.69876 20.1691C6.29917 19.811 6.26203 19.1928 6.6158 18.7883C6.96958 18.3838 7.58029 18.3462 7.97988 18.7043L15.3151 25.2781V19.8948L8.83928 14.4317C8.42931 14.0858 8.37394 13.469 8.71562 13.0541C9.0573 12.6391 9.66663 12.583 10.0766 12.9289L15.3151 17.3482V12.3499L10.6451 8.63666C10.2254 8.30296 10.1524 7.68804 10.4821 7.26321C10.8118 6.83838 11.4193 6.76451 11.839 7.09821L15.3151 9.86217V5.21496C15.3151 4.67474 15.7478 4.2368 16.2814 4.2368C16.8151 4.2368 17.2478 4.67474 17.2478 5.21496V9.57189L19.7146 7.1634C20.0988 6.78836 20.7105 6.79955 21.081 7.18838C21.4515 7.5772 21.4404 8.19644 21.0563 8.57148L17.2478 12.2899V17.1762L21.6753 12.9673C22.0643 12.5974 22.6759 12.6169 23.0412 13.0107C23.4066 13.4045 23.3874 14.0235 22.9984 14.3933L17.2478 19.86V24.9903L23.5299 18.2572C23.8963 17.8644 24.5079 17.8467 24.8959 18.2177Z" fill="#433A32"/>
<path d="M108.35 23.2546C107.195 23.2546 106.242 22.9685 105.493 22.3963C104.743 21.8241 104.313 21.0653 104.202 20.1199H106.175C106.273 20.5428 106.506 20.9098 106.875 21.2208C107.244 21.5193 107.729 21.6686 108.331 21.6686C108.921 21.6686 109.351 21.5442 109.622 21.2954C109.892 21.0466 110.027 20.7605 110.027 20.4371C110.027 19.9644 109.837 19.6472 109.456 19.4855C109.087 19.3113 108.571 19.1558 107.907 19.019C107.391 18.907 106.875 18.7577 106.359 18.5711C105.855 18.3846 105.431 18.1233 105.087 17.7875C104.755 17.4392 104.589 16.9727 104.589 16.388C104.589 15.5794 104.897 14.9077 105.511 14.3728C106.125 13.8255 106.986 13.5518 108.092 13.5518C109.112 13.5518 109.935 13.8006 110.562 14.2982C111.201 14.7957 111.576 15.4986 111.686 16.4067H109.806C109.745 16.0086 109.56 15.6976 109.253 15.4737C108.958 15.2498 108.559 15.1378 108.055 15.1378C107.563 15.1378 107.182 15.2436 106.912 15.455C106.642 15.6541 106.506 15.9153 106.506 16.2387C106.506 16.5622 106.691 16.8172 107.059 17.0038C107.44 17.1904 107.938 17.3583 108.553 17.5076C109.167 17.6444 109.732 17.8061 110.248 17.9927C110.777 18.1669 111.201 18.4281 111.52 18.7764C111.84 19.1247 112 19.6347 112 20.3065C112.012 21.1524 111.686 21.8552 111.023 22.415C110.371 22.9747 109.48 23.2546 108.35 23.2546Z" fill="#433A32"/>
<path d="M101.081 23.0308C100.184 23.0308 99.4716 22.8131 98.9431 22.3777C98.4147 21.9299 98.1505 21.14 98.1505 20.008V15.4365H96.5836V13.7758H98.1505L98.3901 11.4247H100.104V13.7758H102.685V15.4365H100.104V20.008C100.104 20.518 100.209 20.8726 100.418 21.0716C100.639 21.2582 101.014 21.3515 101.542 21.3515H102.593V23.0308H101.081Z" fill="#433A32"/>
<path d="M90.8489 23.2546C89.9764 23.2546 89.1899 23.0556 88.4894 22.6575C87.8012 22.247 87.2544 21.681 86.8488 20.9595C86.4433 20.2256 86.2405 19.3735 86.2405 18.4032C86.2405 17.4329 86.4433 16.587 86.8488 15.8655C87.2667 15.1316 87.8258 14.5656 88.5263 14.1676C89.2268 13.757 90.0071 13.5518 90.8673 13.5518C91.7399 13.5518 92.5202 13.757 93.2084 14.1676C93.9089 14.5656 94.4619 15.1316 94.8674 15.8655C95.2853 16.587 95.4942 17.4329 95.4942 18.4032C95.4942 19.3735 95.2853 20.2256 94.8674 20.9595C94.4619 21.681 93.9089 22.247 93.2084 22.6575C92.5079 23.0556 91.7214 23.2546 90.8489 23.2546ZM90.8489 21.5566C91.3159 21.5566 91.746 21.4385 92.1393 21.2021C92.5448 20.9658 92.8705 20.6175 93.1162 20.1572C93.362 19.6845 93.4849 19.0998 93.4849 18.4032C93.4849 17.7066 93.362 17.1282 93.1162 16.6679C92.8828 16.1952 92.5632 15.8407 92.1577 15.6043C91.7645 15.368 91.3343 15.2498 90.8673 15.2498C90.4004 15.2498 89.9641 15.368 89.5586 15.6043C89.1653 15.8407 88.8458 16.1952 88.6 16.6679C88.3542 17.1282 88.2313 17.7066 88.2313 18.4032C88.2313 19.0998 88.3542 19.6845 88.6 20.1572C88.8458 20.6175 89.1653 20.9658 89.5586 21.2021C89.9518 21.4385 90.3819 21.5566 90.8489 21.5566Z" fill="#433A32"/>
<path d="M79.814 23.2546C78.9414 23.2546 78.1549 23.0556 77.4545 22.6575C76.7663 22.247 76.2194 21.681 75.8139 20.9595C75.4083 20.2256 75.2056 19.3735 75.2056 18.4032C75.2056 17.4329 75.4083 16.587 75.8139 15.8655C76.2317 15.1316 76.7909 14.5656 77.4913 14.1676C78.1918 13.757 78.9722 13.5518 79.8324 13.5518C80.7049 13.5518 81.4853 13.757 82.1735 14.1676C82.8739 14.5656 83.427 15.1316 83.8325 15.8655C84.2503 16.587 84.4592 17.4329 84.4592 18.4032C84.4592 19.3735 84.2503 20.2256 83.8325 20.9595C83.427 21.681 82.8739 22.247 82.1735 22.6575C81.473 23.0556 80.6865 23.2546 79.814 23.2546ZM79.814 21.5566C80.2809 21.5566 80.7111 21.4385 81.1043 21.2021C81.5099 20.9658 81.8355 20.6175 82.0813 20.1572C82.3271 19.6845 82.45 19.0998 82.45 18.4032C82.45 17.7066 82.3271 17.1282 82.0813 16.6679C81.8478 16.1952 81.5283 15.8407 81.1228 15.6043C80.7295 15.368 80.2994 15.2498 79.8324 15.2498C79.3654 15.2498 78.9292 15.368 78.5236 15.6043C78.1304 15.8407 77.8108 16.1952 77.5651 16.6679C77.3193 17.1282 77.1964 17.7066 77.1964 18.4032C77.1964 19.0998 77.3193 19.6845 77.5651 20.1572C77.8108 20.6175 78.1304 20.9658 78.5236 21.2021C78.9169 21.4385 79.347 21.5566 79.814 21.5566Z" fill="#433A32"/>
<path d="M68.7868 23.0307V13.7757H70.538L70.7039 15.5297C71.0234 14.9201 71.4658 14.4412 72.0311 14.0929C72.6087 13.7322 73.303 13.5518 74.1141 13.5518V15.623H73.5795C73.0388 15.623 72.5534 15.7163 72.1233 15.9029C71.7054 16.077 71.3675 16.3818 71.1094 16.8172C70.8636 17.2401 70.7407 17.831 70.7407 18.5898V23.0307H68.7868Z" fill="#433A32"/>
<path d="M64.3584 23.0307V9.59604H66.3123V23.0307H64.3584Z" fill="#433A32"/>
<path d="M57.1584 23.2546C56.3842 23.2546 55.7451 23.124 55.2413 22.8628C54.7374 22.6016 54.3626 22.2595 54.1168 21.8365C53.871 21.4011 53.7482 20.9284 53.7482 20.4184C53.7482 19.5228 54.0922 18.8137 54.7804 18.2913C55.4686 17.7688 56.4517 17.5076 57.7298 17.5076H60.1262V17.3396C60.1262 16.6181 59.9296 16.077 59.5363 15.7163C59.1553 15.3555 58.6576 15.1752 58.0432 15.1752C57.5025 15.1752 57.0293 15.312 56.6238 15.5857C56.2305 15.8469 55.9909 16.2387 55.9049 16.7612H53.9509C54.0124 16.0895 54.2336 15.5172 54.6145 15.0445C55.0078 14.5594 55.4993 14.1924 56.0892 13.9436C56.6914 13.6824 57.3489 13.5518 58.0616 13.5518C59.3397 13.5518 60.3289 13.8939 61.0294 14.5781C61.7299 15.2498 62.0801 16.1703 62.0801 17.3396V23.0307H60.3842L60.2183 21.4447C59.9603 21.9547 59.5855 22.3839 59.0939 22.7322C58.6023 23.0805 57.9572 23.2546 57.1584 23.2546ZM57.5455 21.6499C58.0739 21.6499 58.5163 21.5255 58.8727 21.2767C59.2414 21.0155 59.524 20.6734 59.7206 20.2505C59.9296 19.8275 60.0586 19.3611 60.1077 18.851H57.9326C57.1584 18.851 56.6054 18.9879 56.2736 19.2615C55.954 19.5352 55.7943 19.8773 55.7943 20.2878C55.7943 20.7107 55.9479 21.0466 56.2551 21.2954C56.5746 21.5318 57.0048 21.6499 57.5455 21.6499Z" fill="#433A32"/>
<path d="M47.5732 23.2546C46.6761 23.2546 45.8773 23.0556 45.1768 22.6575C44.4886 22.247 43.9479 21.681 43.5546 20.9595C43.1614 20.238 42.9648 19.3984 42.9648 18.4405C42.9648 17.4703 43.1552 16.6181 43.5362 15.8842C43.9295 15.1503 44.4702 14.5781 45.1584 14.1676C45.8588 13.757 46.6699 13.5518 47.5916 13.5518C48.4887 13.5518 49.2691 13.757 49.9327 14.1676C50.5963 14.5656 51.1124 15.1005 51.4811 15.7723C51.8498 16.444 52.0341 17.1841 52.0341 17.9927C52.0341 18.1171 52.028 18.2539 52.0157 18.4032C52.0157 18.5401 52.0095 18.6955 51.9972 18.8697H44.8819C44.9433 19.7653 45.2321 20.4495 45.7482 20.9222C46.2767 21.3825 46.885 21.6126 47.5732 21.6126C48.1262 21.6126 48.587 21.4882 48.9557 21.2394C49.3366 20.9782 49.6193 20.6299 49.8036 20.1945H51.7576C51.5118 21.0653 51.0202 21.793 50.2829 22.3776C49.5579 22.9623 48.6546 23.2546 47.5732 23.2546ZM47.5732 15.1752C46.9218 15.1752 46.3443 15.3742 45.8404 15.7723C45.3366 16.1579 45.0293 16.7425 44.9187 17.5262H50.0801C50.0433 16.8047 49.7913 16.2325 49.3244 15.8096C48.8574 15.3866 48.2736 15.1752 47.5732 15.1752Z" fill="#433A32"/>
<path d="M36.546 23.0307V13.7757H38.2972L38.4631 15.5297C38.7826 14.9201 39.225 14.4412 39.7903 14.0929C40.3679 13.7322 41.0622 13.5518 41.8733 13.5518V15.623H41.3387C40.798 15.623 40.3126 15.7163 39.8825 15.9029C39.4646 16.077 39.1267 16.3818 38.8686 16.8172C38.6228 17.2401 38.4999 17.831 38.4999 18.5898V23.0307H36.546Z" fill="#433A32"/>
</g>
<defs>
<clipPath id="clip0_7504_26879">
<rect width="112" height="33" fill="white"/>
</clipPath>
</defs>
</svg>
